<svg width="344" height="308" viewBox="0 0 344 308" fill="none" xmlns="http://www.w3.org/2000/svg">
<rect x="2.5" y="2.5" width="339" height="303" rx="12.5" fill="#F5F5F5"/>
<g clip-path="url(#clip0)">
<path d="M143.196 127.129L99.733 75.5723C96.9107 77.3699 95.0005 80.6354 95.0005 84.4068V166.908C95.0005 172.603 99.3101 177.219 104.625 177.219H185.423L167.717 156.217C154.252 154.065 143.849 141.983 143.196 127.129Z" fill="url(#paint0_linear)"/>
<path d="M239.375 74.094H205.688L198.723 59.169C197.092 55.6756 193.76 53.4691 190.113 53.4691H153.888C150.241 53.4691 146.909 55.6759 145.278 59.1693L142.018 66.1534L121.403 41.4141C117.855 37.1818 111.764 36.8366 107.812 40.6461C103.859 44.4579 103.54 50.9789 107.097 55.2112L227.407 199.586C229.306 201.85 231.928 203 234.565 203C236.858 203 239.161 202.126 240.999 200.354C244.951 196.542 245.271 190.02 241.713 185.788L234.574 177.218H239.375C244.691 177.218 249 172.603 249 166.908V84.4068C249 78.7117 244.69 74.094 239.375 74.094ZM166.344 95.3438C168.175 94.951 170.061 94.7193 172 94.7193C187.946 94.7193 200.875 108.571 200.875 125.657C200.875 128.952 200.346 132.101 199.453 135.076L166.344 95.3438Z" fill="url(#paint1_linear)"/>
</g>
<path d="M19.2213 243.512C19.2213 243.064 19.2639 242.797 19.3493 242.712C19.9466 242.627 20.4266 242.584 20.7893 242.584C20.8533 242.584 20.9599 242.595 21.1093 242.616C21.2799 242.616 21.4079 242.616 21.4933 242.616C21.3439 240.696 21.2693 239.021 21.2693 237.592C21.2693 235.672 21.4079 232.792 21.6853 228.952C20.9813 229.144 20.5013 229.24 20.2453 229.24C20.0533 229.24 19.9253 229.219 19.8613 229.176C19.5199 228.92 19.3493 228.323 19.3493 227.384C19.3493 226.381 19.4879 225.667 19.7653 225.24C21.1306 224.6 23.4666 224.28 26.7733 224.28C28.8426 224.28 30.9973 224.397 33.2373 224.632C35.4773 224.867 37.0346 225.133 37.9093 225.432C38.1226 226.499 38.2293 227.32 38.2293 227.896C38.2293 228.899 37.9839 229.72 37.4933 230.36C37.0666 230.467 36.6186 230.52 36.1493 230.52C34.9333 230.52 34.1546 230.179 33.8133 229.496L33.9093 228.44C33.4826 228.163 32.3733 228.024 30.5813 228.024C29.9626 228.024 29.1946 228.056 28.2773 228.12C27.3813 228.184 26.9226 228.248 26.9013 228.312C26.6026 229.357 26.3253 230.989 26.0693 233.208C27.9039 233.208 28.8319 233.176 28.8533 233.112C28.8533 232.579 28.9599 232.205 29.1733 231.992C29.8559 231.843 30.2399 231.768 30.3253 231.768C30.9439 231.768 31.5093 231.875 32.0213 232.088C32.4053 232.536 32.5973 233.347 32.5973 234.52C32.5973 235.181 32.5333 235.821 32.4053 236.44C32.2986 237.037 32.1599 237.421 31.9893 237.592C31.7973 237.741 31.1893 237.816 30.1653 237.816C29.5893 237.816 29.2373 237.752 29.1093 237.624C29.0666 237.581 29.0133 237.528 28.9493 237.464C28.9066 237.379 28.8746 237.325 28.8533 237.304C28.8319 237.261 28.8106 237.219 28.7893 237.176C28.7679 237.112 28.7466 237.048 28.7253 236.984C28.7253 236.92 28.7253 236.835 28.7253 236.728H25.8453C25.8453 238.627 25.8986 240.643 26.0052 242.776C26.1973 242.712 26.5066 242.68 26.9333 242.68C27.4879 242.68 27.7973 242.723 27.8613 242.808C28.0746 243.085 28.1813 243.853 28.1813 245.112C28.1813 246.136 28.1599 246.648 28.1173 246.648C27.4346 247.181 26.1119 247.448 24.1493 247.448C21.9733 247.448 20.4693 247.235 19.6373 246.808C19.3599 246.445 19.2213 245.347 19.2213 243.512ZM36.3075 240.184C36.3075 237.539 37.0968 235.299 38.6755 233.464C40.2542 231.608 42.3022 230.68 44.8195 230.68C45.9715 230.68 46.9635 230.893 47.7955 231.32C48.6488 231.725 49.2995 232.301 49.7475 233.048C50.2168 233.773 50.5475 234.573 50.7395 235.448C50.9528 236.301 51.0595 237.251 51.0595 238.296C51.0595 241.24 50.3022 243.48 48.7875 245.016C47.2942 246.552 45.3422 247.32 42.9315 247.32C41.6515 247.32 40.5528 247.107 39.6355 246.68C38.7182 246.232 38.0248 245.645 37.5555 244.92C37.1075 244.173 36.7875 243.416 36.5955 242.648C36.4035 241.88 36.3075 241.059 36.3075 240.184ZM40.8835 239.928C40.8835 240.995 41.2142 241.912 41.8755 242.68C42.5368 243.448 43.3262 243.832 44.2435 243.832C45.0328 243.832 45.7155 243.512 46.2915 242.872C46.8675 242.211 47.2622 241.517 47.4755 240.792C47.6888 240.045 47.7955 239.352 47.7955 238.712C47.7955 237.752 47.5075 236.92 46.9315 236.216C46.3555 235.491 45.6302 235.128 44.7555 235.128C43.6888 235.128 42.7715 235.64 42.0035 236.664C41.2568 237.667 40.8835 238.755 40.8835 239.928ZM52.6028 231.8C52.6028 231.331 52.6668 231.032 52.7948 230.904C53.1788 230.84 53.6801 230.808 54.2988 230.808H55.0028V224.792C56.1121 224.707 56.8268 224.664 57.1468 224.664C57.4668 224.664 58.1174 224.707 59.0988 224.792L59.4188 230.872C61.7654 230.979 63.1094 231.128 63.4508 231.32C63.7708 231.875 63.9308 232.728 63.9308 233.88C63.9308 234.349 63.8668 234.648 63.7388 234.776C63.0774 234.861 62.3201 234.904 61.4668 234.904C61.1894 234.904 60.7734 234.904 60.2188 234.904C59.6641 234.883 59.2481 234.872 58.9708 234.872C58.9708 235.576 58.9601 236.461 58.9388 237.528C58.9388 238.595 58.9388 239.352 58.9388 239.8C58.9388 241.464 59.0454 242.488 59.2588 242.872C59.4934 243.235 60.1121 243.416 61.1148 243.416C61.4988 243.416 61.8188 243.395 62.0748 243.352L61.8828 242.68L64.8268 242.008C65.0401 242.627 65.1468 243.352 65.1468 244.184C65.1468 245.571 65.0081 246.445 64.7308 246.808C62.6401 247.107 60.9014 247.256 59.5148 247.256C57.7014 247.256 56.5068 247 55.9308 246.488C55.6748 246.253 55.4721 245.944 55.3228 245.56C55.1734 245.176 55.0668 244.632 55.0028 243.928C54.9601 243.203 54.9281 242.488 54.9068 241.784C54.8854 241.059 54.8534 240.013 54.8108 238.648C54.7681 237.283 54.7148 235.992 54.6508 234.776C53.9681 234.712 53.4454 234.573 53.0828 234.36C52.7628 233.805 52.6028 232.952 52.6028 231.8ZM66.7763 240.184C66.7763 237.539 67.5656 235.299 69.1443 233.464C70.7229 231.608 72.7709 230.68 75.2883 230.68C76.4403 230.68 77.4323 230.893 78.2643 231.32C79.1176 231.725 79.7683 232.301 80.2163 233.048C80.6856 233.773 81.0163 234.573 81.2083 235.448C81.4216 236.301 81.5283 237.251 81.5283 238.296C81.5283 241.24 80.7709 243.48 79.2563 245.016C77.7629 246.552 75.8109 247.32 73.4003 247.32C72.1203 247.32 71.0216 247.107 70.1043 246.68C69.1869 246.232 68.4936 245.645 68.0243 244.92C67.5763 244.173 67.2563 243.416 67.0643 242.648C66.8723 241.88 66.7763 241.059 66.7763 240.184ZM71.3523 239.928C71.3523 240.995 71.6829 241.912 72.3443 242.68C73.0056 243.448 73.7949 243.832 74.7123 243.832C75.5016 243.832 76.1843 243.512 76.7603 242.872C77.3363 242.211 77.7309 241.517 77.9443 240.792C78.1576 240.045 78.2643 239.352 78.2643 238.712C78.2643 237.752 77.9763 236.92 77.4003 236.216C76.8243 235.491 76.0989 235.128 75.2243 235.128C74.1576 235.128 73.2403 235.64 72.4723 236.664C71.7256 237.667 71.3523 238.755 71.3523 239.928ZM90.4035 226.968C90.4035 225.987 90.5635 225.293 90.8835 224.888C92.1635 224.44 93.4222 224.216 94.6595 224.216C95.8328 224.216 96.6862 224.408 97.2195 224.792C97.3262 225.197 97.3795 225.571 97.3795 225.912C97.3795 226.083 97.3688 226.179 97.3475 226.2C97.7528 226.072 98.3715 225.869 99.2035 225.592C100.057 225.293 100.686 225.08 101.092 224.952C101.497 224.824 101.977 224.707 102.532 224.6C103.108 224.472 103.609 224.408 104.036 224.408C105.636 224.408 106.937 225.059 107.94 226.36C108.964 227.64 109.476 229.24 109.476 231.16C109.476 233.443 108.761 235.491 107.332 237.304C105.924 239.117 104.014 240.024 101.604 240.024C100.324 240.024 99.1608 239.704 98.1155 239.064C98.1582 239.277 98.1795 239.8 98.1795 240.632C98.1795 241.101 98.1155 241.848 97.9875 242.872C98.0728 242.851 98.3502 242.84 98.8195 242.84C99.1608 242.84 99.5128 242.893 99.8755 243C100.26 243.107 100.505 243.245 100.612 243.416C100.932 243.629 101.092 244.12 101.092 244.888C101.092 245.549 100.932 246.051 100.612 246.392C100.484 246.819 99.1395 247.032 96.5795 247.032C93.1448 247.032 91.3635 246.819 91.2355 246.392C90.9582 246.093 90.8195 245.624 90.8195 244.984C90.8195 244.323 90.9582 243.8 91.2355 243.416C91.4702 243.032 91.9822 242.84 92.7715 242.84C92.9848 242.84 93.1342 242.851 93.2195 242.872C93.2195 242.509 93.2088 241.837 93.1875 240.856C93.1662 239.875 93.1555 238.861 93.1555 237.816C93.1555 234.04 93.2622 231.555 93.4755 230.36C93.4115 230.381 93.2302 230.392 92.9315 230.392C92.2702 230.392 91.7048 230.339 91.2355 230.232C90.6808 229.549 90.4035 228.461 90.4035 226.968ZM97.7315 233.208C97.7315 234.104 97.9555 234.797 98.4035 235.288C98.8728 235.779 99.4595 236.024 100.164 236.024C101.188 236.024 102.18 235.587 103.14 234.712C104.121 233.816 104.612 232.749 104.612 231.512C104.612 230.659 104.366 229.944 103.876 229.368C103.406 228.771 102.766 228.472 101.956 228.472C100.91 228.472 99.9395 228.941 99.0435 229.88C98.1688 230.819 97.7315 231.928 97.7315 233.208ZM111.405 233.016C111.405 232.141 111.469 231.523 111.597 231.16C112.813 230.797 113.997 230.616 115.149 230.616C116.536 230.616 117.602 230.904 118.349 231.48C118.328 231.843 118.317 232.387 118.317 233.112L118.445 232.856C118.509 232.685 118.626 232.483 118.797 232.248C118.989 231.992 119.213 231.747 119.469 231.512C119.725 231.256 120.088 231.043 120.557 230.872C121.026 230.701 121.549 230.616 122.125 230.616C123.746 230.616 125.122 231.309 126.253 232.696C126.104 233.635 125.73 234.349 125.133 234.84C124.536 235.331 123.938 235.597 123.341 235.64C122.552 235.085 121.794 234.808 121.069 234.808C118.957 234.808 117.901 236.152 117.901 238.84C117.901 239.757 118.018 240.76 118.253 241.848C118.296 241.741 118.594 241.688 119.149 241.688C119.789 241.688 120.184 241.763 120.333 241.912C120.589 242.317 120.717 242.979 120.717 243.896C120.717 245.283 120.472 246.189 119.981 246.616C118.893 246.851 117.581 246.968 116.045 246.968C113.528 246.968 112.066 246.733 111.661 246.264C111.597 246.008 111.565 245.357 111.565 244.312C111.565 242.819 111.629 242.019 111.757 241.912C111.906 241.72 112.322 241.624 113.005 241.624C113.496 241.624 113.858 241.699 114.093 241.848C113.901 241.357 113.805 239.704 113.805 236.888C113.805 235.949 113.837 235.416 113.901 235.288C113.645 235.331 113.41 235.352 113.197 235.352C112.429 235.352 111.896 235.16 111.597 234.776C111.469 234.456 111.405 233.869 111.405 233.016ZM127.058 240.184C127.058 237.539 127.847 235.299 129.426 233.464C131.004 231.608 133.052 230.68 135.57 230.68C136.722 230.68 137.714 230.893 138.546 231.32C139.399 231.725 140.05 232.301 140.498 233.048C140.967 233.773 141.298 234.573 141.49 235.448C141.703 236.301 141.81 237.251 141.81 238.296C141.81 241.24 141.052 243.48 139.538 245.016C138.044 246.552 136.092 247.32 133.682 247.32C132.402 247.32 131.303 247.107 130.386 246.68C129.468 246.232 128.775 245.645 128.306 244.92C127.858 244.173 127.538 243.416 127.346 242.648C127.154 241.88 127.058 241.059 127.058 240.184ZM131.634 239.928C131.634 240.995 131.964 241.912 132.626 242.68C133.287 243.448 134.076 243.832 134.994 243.832C135.783 243.832 136.466 243.512 137.042 242.872C137.618 242.211 138.012 241.517 138.226 240.792C138.439 240.045 138.546 239.352 138.546 238.712C138.546 237.752 138.258 236.92 137.682 236.216C137.106 235.491 136.38 235.128 135.506 235.128C134.439 235.128 133.522 235.64 132.754 236.664C132.007 237.667 131.634 238.755 131.634 239.928ZM134.194 227.96C135.068 225.784 135.986 224.173 136.946 223.128C137.138 223.085 137.426 223.064 137.81 223.064C138.748 223.064 139.612 223.341 140.402 223.896C139.826 224.899 138.983 225.869 137.874 226.808C136.786 227.747 135.826 228.216 134.994 228.216C134.695 228.216 134.428 228.131 134.194 227.96ZM143.234 246.456C143.234 245.432 143.543 244.515 144.162 243.704C144.268 243.683 144.46 243.672 144.738 243.672C145.1 243.672 145.378 243.704 145.57 243.768C146.999 241.549 148.375 239.939 149.698 238.936C148.78 238.339 147.916 237.624 147.106 236.792C146.295 235.939 145.698 235.096 145.314 234.264C145.036 234.328 144.652 234.36 144.162 234.36C143.607 233.656 143.308 232.728 143.266 231.576C144.311 231.171 145.527 230.968 146.914 230.968C148.3 230.968 149.474 231.053 150.434 231.224C150.647 231.245 150.903 231.619 151.202 232.344C151.522 233.048 151.682 233.581 151.682 233.944C151.362 234.136 151.02 234.232 150.658 234.232C150.295 234.232 150.007 234.211 149.794 234.168C149.858 234.232 150.124 234.52 150.594 235.032C151.063 235.544 151.511 235.981 151.938 236.344C152.386 236.685 152.887 236.995 153.442 237.272C154.956 236.333 156.183 235.299 157.122 234.168C156.972 234.211 156.642 234.232 156.13 234.232C155.639 234.232 155.34 234.136 155.234 233.944C155.234 233.667 155.383 233.197 155.682 232.536C155.98 231.875 156.236 231.437 156.45 231.224C157.346 231.032 158.498 230.936 159.906 230.936C161.335 230.936 162.572 231.149 163.618 231.576C163.618 232.856 163.33 233.784 162.754 234.36C162.604 234.467 162.476 234.52 162.37 234.52C162.263 234.52 162.007 234.435 161.602 234.264C159.98 236.525 158.54 238.083 157.282 238.936C159.372 240.728 160.706 242.307 161.282 243.672C161.452 243.587 161.655 243.544 161.89 243.544C162.082 243.544 162.37 243.597 162.754 243.704C163.351 244.152 163.65 245.016 163.65 246.296V246.456C162.583 246.904 161.378 247.128 160.034 247.128C158.754 247.128 157.559 247.032 156.45 246.84C156.13 246.669 155.842 246.285 155.586 245.688C155.351 245.069 155.234 244.547 155.234 244.12C155.447 243.885 155.767 243.768 156.194 243.768C156.428 243.768 156.631 243.8 156.802 243.864C156.46 243.245 155.98 242.648 155.362 242.072C154.764 241.496 154.124 241.08 153.442 240.824C153.164 240.931 152.887 241.069 152.61 241.24C152.354 241.411 152.14 241.571 151.97 241.72C151.799 241.848 151.596 242.04 151.362 242.296C151.148 242.531 150.999 242.701 150.914 242.808C150.828 242.915 150.679 243.107 150.466 243.384C150.252 243.661 150.135 243.821 150.114 243.864C150.178 243.864 150.348 243.853 150.626 243.832C150.903 243.811 151.095 243.8 151.202 243.8C151.586 243.8 151.852 243.885 152.002 244.056C151.98 244.355 151.81 244.888 151.49 245.656C151.191 246.424 150.946 246.819 150.754 246.84C149.602 247.032 148.279 247.128 146.786 247.128C145.442 247.128 144.258 246.904 143.234 246.456ZM165.24 244.344C165.24 243.256 165.304 242.637 165.432 242.488C165.688 242.339 166.008 242.243 166.392 242.2C166.648 242.157 167.202 242.136 168.056 242.136C167.928 240.792 167.864 239.331 167.864 237.752C167.864 236.024 167.97 234.925 168.184 234.456C167.138 234.456 166.445 234.413 166.104 234.328C166.125 233.752 166.2 233.144 166.328 232.504C166.37 232.227 166.498 231.683 166.712 230.872C167.501 230.723 168.824 230.648 170.68 230.648C171.426 230.648 172.109 230.691 172.728 230.776C173.368 230.861 173.848 230.968 174.168 231.096C174.509 231.203 174.68 231.309 174.68 231.416C174.722 231.416 174.744 231.8 174.744 232.568C174.744 233.784 174.637 234.552 174.424 234.872C174.338 235 174.082 235.064 173.656 235.064C172.866 235.064 172.365 235.011 172.152 234.904C171.917 236.397 171.8 238.339 171.8 240.728C171.8 241.709 171.832 242.221 171.896 242.264C172.024 242.243 172.205 242.232 172.44 242.232C173.208 242.232 173.826 242.349 174.296 242.584C174.36 242.669 174.392 242.861 174.392 243.16C174.392 243.693 174.317 244.333 174.168 245.08C174.018 245.827 173.805 246.339 173.528 246.616C173.272 246.872 172.44 247 171.032 247C167.682 247 165.826 246.691 165.464 246.072C165.314 245.795 165.24 245.219 165.24 244.344ZM167.8 224.408C167.8 223.811 168.12 223.512 168.76 223.512C169.293 223.512 169.869 223.672 170.488 223.992C170.936 223.544 171.533 223.32 172.28 223.32C172.749 223.32 173.165 223.48 173.528 223.8C173.89 224.12 174.072 224.557 174.072 225.112C174.072 225.389 174.008 225.656 173.88 225.912C173.773 226.168 173.656 226.381 173.528 226.552C173.4 226.723 173.186 226.925 172.888 227.16C172.589 227.373 172.354 227.533 172.184 227.64C172.034 227.725 171.757 227.885 171.352 228.12C170.946 228.333 170.69 228.472 170.584 228.536C169.752 227.917 169.08 227.224 168.568 226.456C168.056 225.667 167.8 224.984 167.8 224.408ZM176.868 244.76C176.868 243.437 177.157 242.616 177.733 242.296C178.266 242.104 178.991 242.008 179.909 242.008C180.037 242.008 180.207 242.029 180.421 242.072C180.421 241.453 180.399 240.461 180.357 239.096C180.314 237.709 180.293 236.664 180.293 235.96C180.207 235.96 179.855 235.992 179.237 236.056C178.618 236.099 178.255 236.12 178.149 236.12C178.063 236.12 177.935 236.099 177.765 236.056C177.594 236.013 177.466 235.992 177.381 235.992C177.295 235.907 177.253 235.683 177.253 235.32C177.253 234.744 177.338 234.029 177.509 233.176C177.679 232.301 177.839 231.768 177.989 231.576C178.629 231.192 179.845 231 181.637 231C182.789 231 183.557 231.075 183.941 231.224C184.325 231.373 184.517 231.704 184.517 232.216C184.517 232.856 184.463 233.496 184.357 234.136C186.341 231.832 188.453 230.68 190.693 230.68C191.759 230.68 192.73 230.957 193.605 231.512C194.501 232.045 195.183 232.824 195.653 233.848V233.688C197.573 231.683 199.589 230.68 201.701 230.68C205.391 230.68 207.237 233.261 207.237 238.424C207.237 239.427 207.173 240.44 207.045 241.464C207.045 241.421 207.141 241.4 207.333 241.4C207.653 241.4 208.154 241.453 208.837 241.56C209.029 241.773 209.125 242.467 209.125 243.64C209.125 245.112 209.018 246.019 208.805 246.36C207.205 246.787 205.818 247 204.645 247C203.813 247 202.853 246.808 201.765 246.424C201.615 246.317 201.455 245.944 201.285 245.304C201.114 244.643 201.029 244.077 201.029 243.608C201.029 242.904 201.221 242.296 201.605 241.784C201.839 241.635 202.149 241.56 202.533 241.56C202.831 241.56 203.119 241.613 203.397 241.72C203.397 241.656 203.397 241.379 203.397 240.888C203.418 240.397 203.429 240.077 203.429 239.928C203.429 238.541 203.045 237.357 202.277 236.376C201.509 235.395 200.634 234.904 199.653 234.904C199.077 234.904 198.469 235.085 197.829 235.448C197.189 235.789 196.698 236.248 196.357 236.824C196.378 236.973 196.378 237.219 196.357 237.56C196.357 239.096 196.293 240.387 196.165 241.432H196.229C196.25 241.411 196.271 241.4 196.293 241.4C196.975 241.4 197.637 241.453 198.277 241.56C198.469 241.773 198.565 242.467 198.565 243.64C198.565 245.112 198.458 246.019 198.245 246.36C196.645 246.787 195.151 247 193.765 247C192.719 247 191.653 246.808 190.565 246.424C190.415 246.317 190.255 245.944 190.085 245.304C189.914 244.643 189.829 244.077 189.829 243.608C189.829 242.904 190.021 242.296 190.405 241.784C190.639 241.635 190.949 241.56 191.333 241.56C191.845 241.56 192.239 241.613 192.517 241.72C192.517 241.656 192.517 241.379 192.517 240.888C192.538 240.397 192.549 240.088 192.549 239.96C192.549 238.616 192.175 237.443 191.429 236.44C190.703 235.416 189.786 234.904 188.677 234.904C187.717 234.904 186.831 235.299 186.021 236.088C185.231 236.856 184.837 238.072 184.837 239.736C184.837 240.333 184.869 241.112 184.933 242.072C185.189 241.923 185.519 241.848 185.925 241.848C186.309 241.848 186.543 241.901 186.629 242.008C186.842 242.008 186.949 242.435 186.949 243.288C186.949 243.48 186.842 244.355 186.629 245.912C185.093 246.659 183.109 247.032 180.677 247.032C178.842 247.032 177.669 246.723 177.157 246.104C176.965 245.848 176.868 245.4 176.868 244.76ZM210.995 240.376C210.995 238.84 211.219 237.357 211.667 235.928C212.136 234.477 212.872 233.229 213.875 232.184C214.899 231.139 216.094 230.616 217.459 230.616C218.078 230.616 218.622 230.723 219.091 230.936C219.582 231.149 219.955 231.416 220.211 231.736C220.488 232.035 220.712 232.344 220.883 232.664C221.054 232.963 221.171 233.219 221.235 233.432C221.299 233.645 221.342 233.752 221.363 233.752C221.363 232.6 221.352 231.843 221.331 231.48C221.758 231.117 222.195 230.883 222.643 230.776C223.112 230.648 223.752 230.584 224.563 230.584C225.203 230.584 225.768 230.605 226.259 230.648C226.771 230.691 227.155 230.744 227.411 230.808C227.667 230.872 227.87 230.936 228.019 231C228.19 231.064 228.296 231.107 228.339 231.128L228.403 231.16C228.488 231.352 228.531 231.949 228.531 232.952C228.531 233.976 228.488 234.584 228.403 234.776C228.339 234.925 227.998 235.064 227.379 235.192C226.76 235.299 226.227 235.352 225.779 235.352C225.566 235.352 225.331 235.331 225.075 235.288C225.139 235.416 225.171 235.96 225.171 236.92C225.171 239.715 225.075 241.261 224.883 241.56C225.032 241.496 225.214 241.464 225.427 241.464C226.366 241.464 227.283 241.56 228.179 241.752C228.35 241.88 228.435 242.787 228.435 244.472C228.435 245.411 228.403 246.008 228.339 246.264C228.19 246.499 227.72 246.723 226.931 246.936C226.142 247.149 225.246 247.256 224.243 247.256C222.43 247.256 221.31 247.213 220.883 247.128C220.734 246.723 220.659 246.381 220.659 246.104C220.659 245.933 220.691 245.805 220.755 245.72C220.499 245.805 219.774 246.125 218.579 246.68C217.384 247.235 216.52 247.512 215.987 247.512C214.344 247.512 213.096 246.819 212.243 245.432C211.411 244.045 210.995 242.36 210.995 240.376ZM214.995 239.544C214.995 240.739 215.358 241.752 216.083 242.584C216.83 243.395 217.608 243.8 218.419 243.8C218.867 243.8 219.379 243.683 219.955 243.448C220.531 243.213 220.84 243 220.883 242.808C220.947 241.827 221 240.931 221.043 240.12C221.107 239.288 221.15 238.659 221.171 238.232C221.214 237.784 221.235 237.496 221.235 237.368V236.984C221.235 236.536 220.936 236.099 220.339 235.672C219.763 235.224 219.112 235 218.387 235C217.32 235 216.488 235.491 215.891 236.472C215.294 237.432 214.995 238.456 214.995 239.544ZM230.868 244.76C230.868 243.437 231.157 242.616 231.733 242.296C232.266 242.104 232.991 242.008 233.909 242.008C234.037 242.008 234.207 242.029 234.421 242.072C234.421 241.453 234.399 240.461 234.357 239.096C234.314 237.709 234.293 236.664 234.293 235.96C234.207 235.96 233.855 235.992 233.237 236.056C232.618 236.099 232.255 236.12 232.149 236.12C232.063 236.12 231.935 236.099 231.765 236.056C231.594 236.013 231.466 235.992 231.381 235.992C231.295 235.907 231.253 235.683 231.253 235.32C231.253 234.744 231.338 234.029 231.509 233.176C231.679 232.301 231.839 231.768 231.989 231.576C232.629 231.192 233.845 231 235.637 231C236.789 231 237.557 231.075 237.941 231.224C238.325 231.373 238.517 231.704 238.517 232.216C238.517 232.856 238.463 233.496 238.357 234.136C240.341 231.832 242.453 230.68 244.693 230.68C245.759 230.68 246.73 230.957 247.605 231.512C248.501 232.045 249.183 232.824 249.653 233.848V233.688C251.573 231.683 253.589 230.68 255.701 230.68C259.391 230.68 261.237 233.261 261.237 238.424C261.237 239.427 261.173 240.44 261.045 241.464C261.045 241.421 261.141 241.4 261.333 241.4C261.653 241.4 262.154 241.453 262.837 241.56C263.029 241.773 263.125 242.467 263.125 243.64C263.125 245.112 263.018 246.019 262.805 246.36C261.205 246.787 259.818 247 258.645 247C257.813 247 256.853 246.808 255.765 246.424C255.615 246.317 255.455 245.944 255.285 245.304C255.114 244.643 255.029 244.077 255.029 243.608C255.029 242.904 255.221 242.296 255.605 241.784C255.839 241.635 256.149 241.56 256.533 241.56C256.831 241.56 257.119 241.613 257.397 241.72C257.397 241.656 257.397 241.379 257.397 240.888C257.418 240.397 257.429 240.077 257.429 239.928C257.429 238.541 257.045 237.357 256.277 236.376C255.509 235.395 254.634 234.904 253.653 234.904C253.077 234.904 252.469 235.085 251.829 235.448C251.189 235.789 250.698 236.248 250.357 236.824C250.378 236.973 250.378 237.219 250.357 237.56C250.357 239.096 250.293 240.387 250.165 241.432H250.229C250.25 241.411 250.271 241.4 250.293 241.4C250.975 241.4 251.637 241.453 252.277 241.56C252.469 241.773 252.565 242.467 252.565 243.64C252.565 245.112 252.458 246.019 252.245 246.36C250.645 246.787 249.151 247 247.765 247C246.719 247 245.653 246.808 244.565 246.424C244.415 246.317 244.255 245.944 244.085 245.304C243.914 244.643 243.829 244.077 243.829 243.608C243.829 242.904 244.021 242.296 244.405 241.784C244.639 241.635 244.949 241.56 245.333 241.56C245.845 241.56 246.239 241.613 246.517 241.72C246.517 241.656 246.517 241.379 246.517 240.888C246.538 240.397 246.549 240.088 246.549 239.96C246.549 238.616 246.175 237.443 245.429 236.44C244.703 235.416 243.786 234.904 242.677 234.904C241.717 234.904 240.831 235.299 240.021 236.088C239.231 236.856 238.837 238.072 238.837 239.736C238.837 240.333 238.869 241.112 238.933 242.072C239.189 241.923 239.519 241.848 239.925 241.848C240.309 241.848 240.543 241.901 240.629 242.008C240.842 242.008 240.949 242.435 240.949 243.288C240.949 243.48 240.842 244.355 240.629 245.912C239.093 246.659 237.109 247.032 234.677 247.032C232.842 247.032 231.669 246.723 231.157 246.104C230.965 245.848 230.868 245.4 230.868 244.76ZM264.899 240.312C264.899 237.901 265.763 235.693 267.491 233.688C269.24 231.683 271.192 230.68 273.347 230.68C274.67 230.68 275.8 231.085 276.739 231.896C277.678 232.707 278.147 233.763 278.147 235.064C278.147 236.579 277.518 237.88 276.259 238.968C275.022 240.035 273.379 240.568 271.331 240.568C270.158 240.568 269.336 240.387 268.867 240.024C268.888 241.048 269.251 241.869 269.955 242.488C270.659 243.085 271.47 243.384 272.387 243.384C273.582 243.384 274.552 242.915 275.299 241.976C275.299 241.805 275.331 241.624 275.395 241.432C276.334 240.664 277.347 240.28 278.435 240.28C278.648 240.28 278.808 240.291 278.915 240.312C280.323 241.08 281.187 242.339 281.507 244.088C281.486 244.259 281.4 244.44 281.251 244.632C281.123 244.824 280.984 244.995 280.835 245.144C280.686 245.272 280.472 245.432 280.195 245.624C279.918 245.795 279.694 245.923 279.523 246.008C279.374 246.093 279.139 246.221 278.819 246.392C278.52 246.563 278.35 246.659 278.307 246.68C278.179 246.68 278.072 246.669 277.987 246.648C277.902 246.605 277.816 246.552 277.731 246.488C277.667 246.403 277.624 246.349 277.603 246.328C277.582 246.285 277.539 246.2 277.475 246.072C277.411 245.923 277.368 245.837 277.347 245.816C275.768 246.861 274.072 247.384 272.259 247.384C270.232 247.384 268.494 246.733 267.043 245.432C265.614 244.131 264.899 242.424 264.899 240.312ZM269.891 236.568C269.891 237.272 270.403 237.624 271.427 237.624C272.195 237.624 272.931 237.443 273.635 237.08C274.339 236.717 274.691 236.269 274.691 235.736C274.691 235.373 274.563 235 274.307 234.616C274.072 234.211 273.688 234.008 273.155 234.008C272.494 234.008 271.779 234.275 271.011 234.808C270.264 235.341 269.891 235.928 269.891 236.568ZM282.806 244.76C282.806 243.437 283.094 242.616 283.67 242.296C284.203 242.104 284.929 242.008 285.846 242.008C285.974 242.008 286.145 242.029 286.358 242.072C286.358 241.453 286.337 240.461 286.294 239.096C286.251 237.709 286.23 236.664 286.23 235.96C286.145 235.96 285.793 235.992 285.174 236.056C284.555 236.099 284.193 236.12 284.086 236.12C284.001 236.12 283.873 236.099 283.702 236.056C283.531 236.013 283.403 235.992 283.318 235.992C283.233 235.907 283.19 235.683 283.19 235.32C283.19 234.744 283.275 234.029 283.446 233.176C283.617 232.301 283.777 231.768 283.926 231.576C284.545 231.192 285.675 231 287.318 231C288.619 231 289.462 231.075 289.846 231.224C290.251 231.352 290.454 231.683 290.454 232.216C290.454 232.856 290.401 233.496 290.294 234.136C292.299 231.832 294.465 230.68 296.79 230.68C300.459 230.68 302.294 233.261 302.294 238.424C302.294 239.469 302.23 240.483 302.102 241.464C302.102 241.421 302.198 241.4 302.39 241.4C302.71 241.4 303.211 241.453 303.894 241.56C304.086 241.773 304.182 242.467 304.182 243.64C304.182 245.112 304.075 246.019 303.862 246.36C302.262 246.787 300.875 247 299.702 247C298.87 247 297.91 246.808 296.822 246.424C296.673 246.317 296.513 245.944 296.342 245.304C296.171 244.643 296.086 244.077 296.086 243.608C296.086 242.904 296.278 242.296 296.662 241.784C296.897 241.635 297.206 241.56 297.59 241.56C297.889 241.56 298.177 241.613 298.454 241.72C298.454 241.656 298.454 241.379 298.454 240.888C298.475 240.397 298.486 240.088 298.486 239.96C298.486 238.616 298.113 237.443 297.366 236.44C296.641 235.416 295.723 234.904 294.614 234.904C293.654 234.904 292.769 235.299 291.958 236.088C291.169 236.856 290.774 238.072 290.774 239.736C290.774 240.333 290.806 241.112 290.87 242.072C291.126 241.923 291.457 241.848 291.862 241.848C292.246 241.848 292.481 241.901 292.566 242.008C292.779 242.008 292.886 242.435 292.886 243.288C292.886 243.48 292.779 244.355 292.566 245.912C291.03 246.659 289.078 247.032 286.71 247.032C284.769 247.032 283.563 246.733 283.094 246.136C282.902 245.901 282.806 245.443 282.806 244.76ZM305.29 231.8C305.29 231.331 305.354 231.032 305.482 230.904C305.866 230.84 306.368 230.808 306.986 230.808H307.69V224.792C308.8 224.707 309.514 224.664 309.834 224.664C310.154 224.664 310.805 224.707 311.786 224.792L312.106 230.872C314.453 230.979 315.797 231.128 316.138 231.32C316.458 231.875 316.618 232.728 316.618 233.88C316.618 234.349 316.554 234.648 316.426 234.776C315.765 234.861 315.008 234.904 314.154 234.904C313.877 234.904 313.461 234.904 312.906 234.904C312.352 234.883 311.936 234.872 311.658 234.872C311.658 235.576 311.648 236.461 311.626 237.528C311.626 238.595 311.626 239.352 311.626 239.8C311.626 241.464 311.733 242.488 311.946 242.872C312.181 243.235 312.8 243.416 313.802 243.416C314.186 243.416 314.506 243.395 314.762 243.352L314.57 242.68L317.514 242.008C317.728 242.627 317.834 243.352 317.834 244.184C317.834 245.571 317.696 246.445 317.418 246.808C315.328 247.107 313.589 247.256 312.202 247.256C310.389 247.256 309.194 247 308.618 246.488C308.362 246.253 308.16 245.944 308.01 245.56C307.861 245.176 307.754 244.632 307.69 243.928C307.648 243.203 307.616 242.488 307.594 241.784C307.573 241.059 307.541 240.013 307.498 238.648C307.456 237.283 307.402 235.992 307.338 234.776C306.656 234.712 306.133 234.573 305.77 234.36C305.45 233.805 305.29 232.952 305.29 231.8ZM319.368 240.312C319.368 237.901 320.232 235.693 321.96 233.688C323.709 231.683 325.661 230.68 327.816 230.68C329.138 230.68 330.269 231.085 331.208 231.896C332.146 232.707 332.616 233.763 332.616 235.064C332.616 236.579 331.986 237.88 330.728 238.968C329.49 240.035 327.848 240.568 325.8 240.568C324.626 240.568 323.805 240.387 323.336 240.024C323.357 241.048 323.72 241.869 324.424 242.488C325.128 243.085 325.938 243.384 326.856 243.384C328.05 243.384 329.021 242.915 329.768 241.976C329.768 241.805 329.8 241.624 329.864 241.432C330.802 240.664 331.816 240.28 332.904 240.28C333.117 240.28 333.277 240.291 333.384 240.312C334.792 241.08 335.656 242.339 335.976 244.088C335.954 244.259 335.869 244.44 335.72 244.632C335.592 244.824 335.453 244.995 335.304 245.144C335.154 245.272 334.941 245.432 334.664 245.624C334.386 245.795 334.162 245.923 333.992 246.008C333.842 246.093 333.608 246.221 333.288 246.392C332.989 246.563 332.818 246.659 332.776 246.68C332.648 246.68 332.541 246.669 332.456 246.648C332.37 246.605 332.285 246.552 332.2 246.488C332.136 246.403 332.093 246.349 332.072 246.328C332.05 246.285 332.008 246.2 331.944 246.072C331.88 245.923 331.837 245.837 331.816 245.816C330.237 246.861 328.541 247.384 326.728 247.384C324.701 247.384 322.962 246.733 321.512 245.432C320.082 244.131 319.368 242.424 319.368 240.312ZM324.36 236.568C324.36 237.272 324.872 237.624 325.896 237.624C326.664 237.624 327.4 237.443 328.104 237.08C328.808 236.717 329.16 236.269 329.16 235.736C329.16 235.373 329.032 235 328.776 234.616C328.541 234.211 328.157 234.008 327.624 234.008C326.962 234.008 326.248 234.275 325.48 234.808C324.733 235.341 324.36 235.928 324.36 236.568Z" fill="url(#paint2_linear)" fill-opacity="0.76"/>
<rect x="2.5" y="2.5" width="339" height="303" rx="12.5" stroke="#FAFAF8" stroke-width="5"/>
<defs>
<linearGradient id="paint0_linear" x1="140.212" y1="75.5723" x2="140.212" y2="177.219" gradientUnits="userSpaceOnUse">
<stop stop-color="#B9B6B6"/>
<stop offset="0.9999" stop-color="#FF7155" stop-opacity="0.13"/>
<stop offset="1" stop-color="#E70E0E" stop-opacity="0.19"/>
</linearGradient>
<linearGradient id="paint1_linear" x1="176.812" y1="38" x2="176.812" y2="203" gradientUnits="userSpaceOnUse">
<stop stop-color="#B9B6B6"/>
<stop offset="0.9999" stop-color="#FF7155" stop-opacity="0.13"/>
<stop offset="1" stop-color="#E70E0E" stop-opacity="0.19"/>
</linearGradient>
<linearGradient id="paint2_linear" x1="177" y1="216" x2="177" y2="269" gradientUnits="userSpaceOnUse">
<stop stop-color="#FF441F"/>
<stop offset="1" stop-color="#FF441F" stop-opacity="0"/>
</linearGradient>
<clipPath id="clip0">
<rect width="154" height="165" fill="white" transform="translate(95 38)"/>
</clipPath>
</defs>
</svg>
